<svg id="Слой_1" data-name="Слой 1" xmlns="http://www.w3.org/2000/svg" viewBox="0 0 26.5 26.5"><defs><style>.cls-1{fill:#f16330;}</style></defs><path class="cls-1" d="M1,26.21l-.73-.73a1,1,0,0,1,0-1.37L10.46,13.93a1,1,0,0,0,0-1.37L.28,2.38A1,1,0,0,1,.28,1L1,.28a1,1,0,0,1,1.37,0L12.56,10.46a1,1,0,0,0,1.37,0L24.11.28a1,1,0,0,1,1.37,0l.73.73a1,1,0,0,1,0,1.37L16,12.56a1,1,0,0,0,0,1.37L26.21,24.11a1,1,0,0,1,0,1.37l-.73.73a1,1,0,0,1-1.37,0L13.93,16a1,1,0,0,0-1.37,0L2.38,26.21A1,1,0,0,1,1,26.21Z"/></svg>