<svg id="Слой_4" data-name="Слой 4" xmlns="http://www.w3.org/2000/svg" viewBox="0 0 32 4.8"><defs><style>.cls-1{fill:#666;}</style></defs><path class="cls-1" d="M2.39,4.8A2.3,2.3,0,0,1,.7,4.09,2.32,2.32,0,0,1,0,2.39,2.3,2.3,0,0,1,.71.7,2.32,2.32,0,0,1,2.41,0,2.3,2.3,0,0,1,4.1.71a2.32,2.32,0,0,1,.7,1.7A2.3,2.3,0,0,1,4.09,4.1,2.32,2.32,0,0,1,2.39,4.8ZM16,4.8a2.3,2.3,0,0,1-1.69-.71,2.32,2.32,0,0,1-.7-1.7A2.3,2.3,0,0,1,14.31.7a2.39,2.39,0,0,1,3.39,0,2.32,2.32,0,0,1,.7,1.7,2.3,2.3,0,0,1-.71,1.69A2.32,2.32,0,0,1,16,4.8Zm13.6,0a2.3,2.3,0,0,1-1.69-.71,2.32,2.32,0,0,1-.7-1.7A2.3,2.3,0,0,1,27.91.7a2.39,2.39,0,0,1,3.39,0,2.32,2.32,0,0,1,.7,1.7,2.3,2.3,0,0,1-.71,1.69A2.32,2.32,0,0,1,29.59,4.8Z"/></svg>